<?xml version="1.0" encoding="UTF-8"?>
<svg xmlns="http://www.w3.org/2000/svg" width="2255" height="825" viewBox="0 0 2255 825">

  <rect width="2255" height="825" fill="#0F172A"/>

  <!-- Screen labels -->
  <text x="201"  y="810" text-anchor="middle" font-size="13" fill="#64748B" font-family="system-ui">1 · Queue</text>
  <text x="664"  y="810" text-anchor="middle" font-size="13" fill="#64748B" font-family="system-ui">2 · Driver Detail</text>
  <text x="1127" y="810" text-anchor="middle" font-size="13" fill="#64748B" font-family="system-ui">3 · Log Action</text>
  <text x="1590" y="810" text-anchor="middle" font-size="13" fill="#64748B" font-family="system-ui">4 · Agent SMS</text>
  <text x="2053" y="810" text-anchor="middle" font-size="13" fill="#64748B" font-family="system-ui">5 · Playbook</text>

  <defs>
    <!-- Single reusable clip — coordinates are in each phone group's local space -->
    <clipPath id="sc">
      <rect x="14" y="14" width="375" height="756" rx="36"/>
    </clipPath>
  </defs>

  <!-- ═══════════════════════════════════════
       PHONE 1 — Queue (home screen)
  ═══════════════════════════════════════ -->
  <g transform="translate(0,0)">
    <!-- Phone outer frame -->
    <rect width="403" height="784" rx="48" fill="#1C1C1E"/>
    <!-- Inner screen background -->
    <rect x="14" y="14" width="375" height="756" rx="36" fill="#F0F2F5"/>

    <g clip-path="url(#sc)">
      <g transform="translate(14,14)">

        <!-- Status bar -->
        <rect width="375" height="44" fill="#1B2E4B"/>
        <text x="20" y="30" font-size="14" font-weight="600" fill="#fff" font-family="system-ui">9:41</text>
        <rect x="316" y="27" width="3" height="10" rx="1" fill="#fff"/>
        <rect x="321" y="25" width="3" height="12" rx="1" fill="#fff"/>
        <rect x="326" y="22" width="3" height="15" rx="1" fill="#fff"/>
        <rect x="331" y="19" width="3" height="18" rx="1" fill="#fff"/>
        <rect x="338" y="19" width="16" height="9" rx="2" stroke="#fff" stroke-width="1.5" fill="none"/>
        <rect x="354" y="22" width="2" height="3" rx="1" fill="#fff"/>
        <rect x="339" y="20" width="11" height="7" rx="1" fill="#fff"/>

        <!-- App header -->
        <rect x="0" y="44" width="375" height="66" fill="#1B2E4B"/>
        <text x="20" y="76" font-size="18" font-weight="700" fill="#fff" font-family="system-ui">Summit Logistics</text>
        <text x="20" y="97" font-size="12" fill="rgba(255,255,255,0.55)" font-family="system-ui">3 drivers flagged this week</text>

        <!-- Summary pill -->
        <rect x="16" y="120" width="190" height="26" rx="13" fill="rgba(255,153,0,0.12)" stroke="rgba(255,153,0,0.3)" stroke-width="1"/>
        <circle cx="32" cy="133" r="3" fill="#FF9900"/>
        <text x="42" y="137" font-size="12" font-weight="600" fill="#B45309" font-family="system-ui">3 drivers need attention</text>

        <!-- Section: Needs Action -->
        <text x="16" y="165" font-size="11" font-weight="700" fill="#8492A6" letter-spacing="0.8" font-family="system-ui">NEEDS ACTION</text>

        <!-- Card: Maria Santos -->
        <rect x="16" y="173" width="343" height="64" rx="14" fill="#fff" stroke="#E2E8F0" stroke-width="1"/>
        <circle cx="38" cy="205" r="5" fill="#C0392B"/>
        <circle cx="38" cy="205" r="9" fill="rgba(192,57,43,0.12)"/>
        <circle cx="38" cy="205" r="5" fill="#C0392B"/>
        <text x="54" y="198" font-size="15" font-weight="600" fill="#1A1F36" font-family="system-ui">Maria Santos</text>
        <text x="54" y="215" font-size="12" fill="#8492A6" font-family="system-ui">Customer complaint · High · 2 days ago</text>
        <circle cx="323" cy="205" r="17" fill="rgba(192,57,43,0.1)"/>
        <text x="323" y="210" text-anchor="middle" font-size="14" font-weight="700" fill="#C0392B" font-family="system-ui">9</text>
        <text x="350" y="211" font-size="20" fill="#CBD5E0" font-family="system-ui">›</text>

        <!-- Section: Watching -->
        <text x="16" y="254" font-size="11" font-weight="700" fill="#8492A6" letter-spacing="0.8" font-family="system-ui">WATCHING</text>

        <!-- Card: James Torres -->
        <rect x="16" y="262" width="343" height="64" rx="14" fill="#fff" stroke="#E2E8F0" stroke-width="1"/>
        <circle cx="38" cy="294" r="5" fill="#E67E22"/>
        <circle cx="38" cy="294" r="9" fill="rgba(230,126,34,0.12)"/>
        <circle cx="38" cy="294" r="5" fill="#E67E22"/>
        <text x="54" y="287" font-size="15" font-weight="600" fill="#1A1F36" font-family="system-ui">James Torres</text>
        <text x="54" y="304" font-size="12" fill="#8492A6" font-family="system-ui">Hard braking · Low · 5 hours ago</text>
        <circle cx="323" cy="294" r="17" fill="rgba(230,126,34,0.1)"/>
        <text x="323" y="299" text-anchor="middle" font-size="14" font-weight="700" fill="#E67E22" font-family="system-ui">2</text>
        <text x="350" y="300" font-size="20" fill="#CBD5E0" font-family="system-ui">›</text>

        <!-- Section: Resolved -->
        <text x="16" y="343" font-size="11" font-weight="700" fill="#8492A6" letter-spacing="0.8" font-family="system-ui">RESOLVED THIS WEEK</text>

        <!-- Card: Chen Wei -->
        <rect x="16" y="351" width="343" height="64" rx="14" fill="#fff" stroke="#E2E8F0" stroke-width="1"/>
        <circle cx="38" cy="383" r="5" fill="#27AE60"/>
        <text x="54" y="376" font-size="15" font-weight="600" fill="#1A1F36" font-family="system-ui">Chen Wei</text>
        <text x="54" y="393" font-size="12" fill="#8492A6" font-family="system-ui">Coaching session logged · Yesterday</text>
        <circle cx="323" cy="383" r="17" fill="rgba(39,174,96,0.1)"/>
        <text x="323" y="388" text-anchor="middle" font-size="13" font-weight="700" fill="#27AE60" font-family="system-ui">✓</text>

        <!-- Tab bar -->
        <rect x="0" y="684" width="375" height="72" fill="#fff"/>
        <line x1="0" y1="684" x2="375" y2="684" stroke="#E2E8F0" stroke-width="1"/>
        <!-- Queue (active) -->
        <g transform="translate(51.5,698) scale(0.917)">
          <polyline points="9,11 12,14 22,4" stroke="#FF9900" stroke-width="2" fill="none" stroke-linecap="round" stroke-linejoin="round"/>
          <path d="M21,12v7a2,2,0,0,1-2,2H5a2,2,0,0,1-2-2V5a2,2,0,0,1,2-2h11" stroke="#FF9900" stroke-width="2" fill="none" stroke-linecap="round"/>
        </g>
        <text x="62.5" y="730" text-anchor="middle" font-size="10" font-weight="500" fill="#FF9900" font-family="system-ui">Queue</text>
        <!-- Playbook (inactive) -->
        <g transform="translate(176.5,698) scale(0.917)">
          <path d="M4,19.5A2.5,2.5,0,0,1,6.5,17H20" stroke="#94A3B8" stroke-width="2" fill="none" stroke-linecap="round"/>
          <path d="M6.5,2H20v20H6.5A2.5,2.5,0,0,1,4,19.5v-15A2.5,2.5,0,0,1,6.5,2z" stroke="#94A3B8" stroke-width="2" fill="none" stroke-linecap="round"/>
        </g>
        <text x="187.5" y="730" text-anchor="middle" font-size="10" font-weight="500" fill="#94A3B8" font-family="system-ui">Playbook</text>
        <!-- Agent (inactive) -->
        <g transform="translate(301.5,698) scale(0.917)">
          <circle cx="12" cy="12" r="10" stroke="#94A3B8" stroke-width="2" fill="none"/>
          <path d="M8,14s1.5,2,4,2,4-2,4-2" stroke="#94A3B8" stroke-width="2" fill="none" stroke-linecap="round"/>
          <line x1="9" y1="9" x2="9.01" y2="9" stroke="#94A3B8" stroke-width="2.5" stroke-linecap="round"/>
          <line x1="15" y1="9" x2="15.01" y2="9" stroke="#94A3B8" stroke-width="2.5" stroke-linecap="round"/>
        </g>
        <text x="312.5" y="730" text-anchor="middle" font-size="10" font-weight="500" fill="#94A3B8" font-family="system-ui">Agent</text>

      </g>
    </g>

    <!-- Notch -->
    <rect x="141" y="14" width="121" height="34" fill="#1C1C1E"/>
    <circle cx="201" cy="28" r="5" fill="#2C2C2E"/>
  </g>


  <!-- ═══════════════════════════════════════
       PHONE 2 — Driver Detail
  ═══════════════════════════════════════ -->
  <g transform="translate(463,0)">
    <rect width="403" height="784" rx="48" fill="#1C1C1E"/>
    <rect x="14" y="14" width="375" height="756" rx="36" fill="#F0F2F5"/>

    <g clip-path="url(#sc)">
      <g transform="translate(14,14)">

        <!-- Status bar -->
        <rect width="375" height="44" fill="#1B2E4B"/>
        <text x="20" y="30" font-size="14" font-weight="600" fill="#fff" font-family="system-ui">9:41</text>
        <rect x="316" y="27" width="3" height="10" rx="1" fill="#fff"/>
        <rect x="321" y="25" width="3" height="12" rx="1" fill="#fff"/>
        <rect x="326" y="22" width="3" height="15" rx="1" fill="#fff"/>
        <rect x="331" y="19" width="3" height="18" rx="1" fill="#fff"/>
        <rect x="338" y="19" width="16" height="9" rx="2" stroke="#fff" stroke-width="1.5" fill="none"/>
        <rect x="354" y="22" width="2" height="3" rx="1" fill="#fff"/>
        <rect x="339" y="20" width="11" height="7" rx="1" fill="#fff"/>

        <!-- Header with back button -->
        <rect x="0" y="44" width="375" height="56" fill="#1B2E4B"/>
        <circle cx="36" cy="72" r="16" fill="rgba(255,255,255,0.12)"/>
        <text x="36" y="78" text-anchor="middle" font-size="18" fill="#fff" font-family="system-ui">‹</text>
        <text x="62" y="68" font-size="17" font-weight="700" fill="#fff" font-family="system-ui">Maria Santos</text>
        <text x="62" y="86" font-size="12" fill="rgba(255,255,255,0.55)" font-family="system-ui">driver-001</text>

        <!-- Alert banner -->
        <rect x="16" y="112" width="343" height="56" rx="12" fill="rgba(192,57,43,0.08)" stroke="rgba(192,57,43,0.2)" stroke-width="1"/>
        <text x="34" y="145" font-size="22" font-family="system-ui">⚠</text>
        <text x="62" y="132" font-size="13" font-weight="600" fill="#C0392B" font-family="system-ui">Threshold crossed · Score 9</text>
        <text x="62" y="150" font-size="11" fill="rgba(192,57,43,0.7)" font-family="system-ui">Notification sent · April 23 at 10:02 AM</text>

        <!-- Signals card -->
        <rect x="16" y="180" width="343" height="88" rx="14" fill="#fff" stroke="#E2E8F0" stroke-width="1"/>
        <text x="30" y="200" font-size="11" font-weight="700" fill="#8492A6" letter-spacing="0.6" font-family="system-ui">SIGNALS THIS WEEK</text>
        <line x1="30" y1="208" x2="345" y2="208" stroke="#E2E8F0" stroke-width="1"/>
        <text x="30" y="228" font-size="13" font-weight="600" fill="#1A1F36" font-family="system-ui">Customer Complaint</text>
        <text x="30" y="244" font-size="11" fill="#8492A6" font-family="system-ui">April 23 · 10:00 AM · customer-feedback-system</text>
        <rect x="293" y="218" width="42" height="20" rx="10" fill="rgba(192,57,43,0.1)"/>
        <text x="314" y="232" text-anchor="middle" font-size="10" font-weight="700" fill="#C0392B" font-family="system-ui">HIGH</text>

        <!-- Recommended action -->
        <rect x="16" y="280" width="343" height="76" rx="14" fill="#1B2E4B"/>
        <text x="30" y="300" font-size="11" font-weight="700" fill="rgba(255,255,255,0.5)" letter-spacing="0.6" font-family="system-ui">RECOMMENDED ACTION</text>
        <text x="30" y="320" font-size="14" font-weight="500" fill="#fff" font-family="system-ui">Call driver same day +</text>
        <text x="30" y="340" font-size="14" font-weight="500" fill="#fff" font-family="system-ui">document in Mentor</text>

        <!-- Action buttons -->
        <rect x="16" y="368" width="163" height="48" rx="12" fill="#FF9900"/>
        <text x="97" y="397" text-anchor="middle" font-size="14" font-weight="700" fill="#fff" font-family="system-ui">Log Action</text>
        <rect x="191" y="368" width="168" height="48" rx="12" fill="#fff" stroke="#E2E8F0" stroke-width="1"/>
        <text x="275" y="397" text-anchor="middle" font-size="14" font-weight="600" fill="#1A1F36" font-family="system-ui">Snooze</text>

        <!-- Tab bar -->
        <rect x="0" y="684" width="375" height="72" fill="#fff"/>
        <line x1="0" y1="684" x2="375" y2="684" stroke="#E2E8F0" stroke-width="1"/>
        <g transform="translate(51.5,698) scale(0.917)">
          <polyline points="9,11 12,14 22,4" stroke="#FF9900" stroke-width="2" fill="none" stroke-linecap="round" stroke-linejoin="round"/>
          <path d="M21,12v7a2,2,0,0,1-2,2H5a2,2,0,0,1-2-2V5a2,2,0,0,1,2-2h11" stroke="#FF9900" stroke-width="2" fill="none" stroke-linecap="round"/>
        </g>
        <text x="62.5" y="730" text-anchor="middle" font-size="10" font-weight="500" fill="#FF9900" font-family="system-ui">Queue</text>
        <g transform="translate(176.5,698) scale(0.917)">
          <path d="M4,19.5A2.5,2.5,0,0,1,6.5,17H20" stroke="#94A3B8" stroke-width="2" fill="none" stroke-linecap="round"/>
          <path d="M6.5,2H20v20H6.5A2.5,2.5,0,0,1,4,19.5v-15A2.5,2.5,0,0,1,6.5,2z" stroke="#94A3B8" stroke-width="2" fill="none" stroke-linecap="round"/>
        </g>
        <text x="187.5" y="730" text-anchor="middle" font-size="10" font-weight="500" fill="#94A3B8" font-family="system-ui">Playbook</text>
        <g transform="translate(301.5,698) scale(0.917)">
          <circle cx="12" cy="12" r="10" stroke="#94A3B8" stroke-width="2" fill="none"/>
          <path d="M8,14s1.5,2,4,2,4-2,4-2" stroke="#94A3B8" stroke-width="2" fill="none" stroke-linecap="round"/>
          <line x1="9" y1="9" x2="9.01" y2="9" stroke="#94A3B8" stroke-width="2.5" stroke-linecap="round"/>
          <line x1="15" y1="9" x2="15.01" y2="9" stroke="#94A3B8" stroke-width="2.5" stroke-linecap="round"/>
        </g>
        <text x="312.5" y="730" text-anchor="middle" font-size="10" font-weight="500" fill="#94A3B8" font-family="system-ui">Agent</text>

      </g>
    </g>
    <rect x="141" y="14" width="121" height="34" fill="#1C1C1E"/>
    <circle cx="201" cy="28" r="5" fill="#2C2C2E"/>
  </g>


  <!-- ═══════════════════════════════════════
       PHONE 3 — Log Action Modal
  ═══════════════════════════════════════ -->
  <g transform="translate(926,0)">
    <rect width="403" height="784" rx="48" fill="#1C1C1E"/>
    <rect x="14" y="14" width="375" height="756" rx="36" fill="#F0F2F5"/>

    <g clip-path="url(#sc)">
      <g transform="translate(14,14)">

        <!-- Same detail screen underneath -->
        <rect width="375" height="44" fill="#1B2E4B"/>
        <text x="20" y="30" font-size="14" font-weight="600" fill="#fff" font-family="system-ui">9:41</text>
        <rect x="316" y="27" width="3" height="10" rx="1" fill="#fff"/>
        <rect x="321" y="25" width="3" height="12" rx="1" fill="#fff"/>
        <rect x="326" y="22" width="3" height="15" rx="1" fill="#fff"/>
        <rect x="331" y="19" width="3" height="18" rx="1" fill="#fff"/>
        <rect x="338" y="19" width="16" height="9" rx="2" stroke="#fff" stroke-width="1.5" fill="none"/>
        <rect x="354" y="22" width="2" height="3" rx="1" fill="#fff"/>
        <rect x="339" y="20" width="11" height="7" rx="1" fill="#fff"/>
        <rect x="0" y="44" width="375" height="56" fill="#1B2E4B"/>
        <circle cx="36" cy="72" r="16" fill="rgba(255,255,255,0.12)"/>
        <text x="36" y="78" text-anchor="middle" font-size="18" fill="#fff" font-family="system-ui">‹</text>
        <text x="62" y="68" font-size="17" font-weight="700" fill="#fff" font-family="system-ui">Maria Santos</text>
        <text x="62" y="86" font-size="12" fill="rgba(255,255,255,0.55)" font-family="system-ui">driver-001</text>
        <rect x="16" y="112" width="343" height="56" rx="12" fill="rgba(192,57,43,0.08)" stroke="rgba(192,57,43,0.2)" stroke-width="1"/>
        <text x="62" y="132" font-size="13" font-weight="600" fill="#C0392B" font-family="system-ui">Threshold crossed · Score 9</text>
        <text x="62" y="150" font-size="11" fill="rgba(192,57,43,0.7)" font-family="system-ui">Notification sent · April 23 at 10:02 AM</text>
        <rect x="16" y="180" width="343" height="80" rx="14" fill="#fff" stroke="#E2E8F0" stroke-width="1"/>
        <text x="30" y="200" font-size="11" font-weight="700" fill="#8492A6" letter-spacing="0.6" font-family="system-ui">SIGNALS THIS WEEK</text>
        <text x="30" y="228" font-size="13" font-weight="600" fill="#1A1F36" font-family="system-ui">Customer Complaint</text>
        <rect x="293" y="218" width="42" height="20" rx="10" fill="rgba(192,57,43,0.1)"/>
        <text x="314" y="232" text-anchor="middle" font-size="10" font-weight="700" fill="#C0392B" font-family="system-ui">HIGH</text>
        <rect x="16" y="272" width="343" height="70" rx="14" fill="#1B2E4B"/>
        <text x="30" y="292" font-size="11" font-weight="700" fill="rgba(255,255,255,0.5)" font-family="system-ui">RECOMMENDED ACTION</text>
        <text x="30" y="316" font-size="13" fill="#fff" font-family="system-ui">Call driver same day + document in Mentor</text>
        <rect x="16" y="354" width="163" height="48" rx="12" fill="rgba(255,153,0,0.4)"/>
        <text x="97" y="383" text-anchor="middle" font-size="14" font-weight="700" fill="#fff" font-family="system-ui">Log Action</text>
        <rect x="191" y="354" width="168" height="48" rx="12" fill="rgba(255,255,255,0.3)" stroke="rgba(226,232,240,0.5)" stroke-width="1"/>
        <text x="275" y="383" text-anchor="middle" font-size="14" font-weight="600" fill="rgba(26,31,54,0.4)" font-family="system-ui">Snooze</text>

        <!-- Dim overlay -->
        <rect x="0" y="0" width="375" height="756" fill="rgba(0,0,0,0.45)"/>

        <!-- Modal sheet -->
        <rect x="0" y="376" width="375" height="380" rx="24" fill="#fff"/>
        <rect x="0" y="400" width="375" height="356" fill="#fff"/>

        <!-- Handle -->
        <rect x="169" y="388" width="37" height="4" rx="2" fill="#E2E8F0"/>

        <!-- Modal title -->
        <text x="20" y="416" font-size="17" font-weight="700" fill="#1A1F36" font-family="system-ui">Log Action</text>
        <text x="20" y="434" font-size="13" fill="#8492A6" font-family="system-ui">Maria Santos · driver-001</text>

        <!-- Option 1: In Progress (selected) -->
        <rect x="20" y="446" width="335" height="60" rx="12" fill="rgba(255,153,0,0.05)" stroke="#FF9900" stroke-width="1.5"/>
        <text x="42" y="481" font-size="20" font-family="system-ui">⚡</text>
        <text x="66" y="471" font-size="14" font-weight="600" fill="#1A1F36" font-family="system-ui">In Progress</text>
        <text x="66" y="488" font-size="12" fill="#8492A6" font-family="system-ui">Spoken with driver, monitoring</text>
        <circle cx="340" cy="476" r="9" fill="#FF9900"/>
        <circle cx="340" cy="476" r="4" fill="#fff"/>

        <!-- Option 2: Resolved -->
        <rect x="20" y="514" width="335" height="60" rx="12" fill="#fff" stroke="#E2E8F0" stroke-width="1"/>
        <text x="42" y="549" font-size="20" font-family="system-ui">✅</text>
        <text x="66" y="539" font-size="14" font-weight="600" fill="#1A1F36" font-family="system-ui">Resolved</text>
        <text x="66" y="556" font-size="12" fill="#8492A6" font-family="system-ui">Issue addressed and closed</text>
        <circle cx="340" cy="544" r="9" stroke="#CBD5E0" stroke-width="2" fill="none"/>

        <!-- Option 3: Snooze -->
        <rect x="20" y="582" width="335" height="60" rx="12" fill="#fff" stroke="#E2E8F0" stroke-width="1"/>
        <text x="42" y="617" font-size="20" font-family="system-ui">⏸</text>
        <text x="66" y="607" font-size="14" font-weight="600" fill="#1A1F36" font-family="system-ui">Snooze</text>
        <text x="66" y="624" font-size="12" fill="#8492A6" font-family="system-ui">Check back in 3–7 days</text>
        <circle cx="340" cy="612" r="9" stroke="#CBD5E0" stroke-width="2" fill="none"/>

        <!-- Note field -->
        <rect x="20" y="650" width="335" height="52" rx="10" fill="#fff" stroke="#E2E8F0" stroke-width="1"/>
        <text x="34" y="680" font-size="13" fill="#CBD5E0" font-family="system-ui">Add a note (optional)…</text>

        <!-- Confirm button -->
        <rect x="20" y="712" width="335" height="48" rx="12" fill="#FF9900"/>
        <text x="187" y="741" text-anchor="middle" font-size="14" font-weight="700" fill="#fff" font-family="system-ui">Confirm</text>

      </g>
    </g>
    <rect x="141" y="14" width="121" height="34" fill="#1C1C1E"/>
    <circle cx="201" cy="28" r="5" fill="#2C2C2E"/>
  </g>


  <!-- ═══════════════════════════════════════
       PHONE 4 — Agent SMS
  ═══════════════════════════════════════ -->
  <g transform="translate(1389,0)">
    <rect width="403" height="784" rx="48" fill="#1C1C1E"/>
    <rect x="14" y="14" width="375" height="756" rx="36" fill="#fff"/>

    <g clip-path="url(#sc)">
      <g transform="translate(14,14)">

        <!-- Status bar -->
        <rect width="375" height="44" fill="#1B2E4B"/>
        <text x="20" y="30" font-size="14" font-weight="600" fill="#fff" font-family="system-ui">9:41</text>
        <rect x="316" y="27" width="3" height="10" rx="1" fill="#fff"/>
        <rect x="321" y="25" width="3" height="12" rx="1" fill="#fff"/>
        <rect x="326" y="22" width="3" height="15" rx="1" fill="#fff"/>
        <rect x="331" y="19" width="3" height="18" rx="1" fill="#fff"/>
        <rect x="338" y="19" width="16" height="9" rx="2" stroke="#fff" stroke-width="1.5" fill="none"/>
        <rect x="354" y="22" width="2" height="3" rx="1" fill="#fff"/>
        <rect x="339" y="20" width="11" height="7" rx="1" fill="#fff"/>

        <!-- Header -->
        <rect x="0" y="44" width="375" height="56" fill="#1B2E4B"/>
        <text x="20" y="74" font-size="18" font-weight="700" fill="#fff" font-family="system-ui">Messages</text>
        <text x="20" y="92" font-size="12" fill="rgba(255,255,255,0.55)" font-family="system-ui">Signal Aggregator</text>

        <!-- White body bg -->
        <rect x="0" y="100" width="375" height="584" fill="#fff"/>

        <!-- SMS header card -->
        <rect x="16" y="112" width="343" height="52" rx="12" fill="#E8E8ED"/>
        <text x="187" y="132" text-anchor="middle" font-size="14" font-weight="700" fill="#1A1F36" font-family="system-ui">Signal Aggregator</text>
        <text x="187" y="150" text-anchor="middle" font-size="11" fill="#8492A6" font-family="system-ui">Automated safety alerts · Summit Logistics</text>

        <!-- Agent badge -->
        <rect x="16" y="174" width="174" height="26" rx="8" fill="rgba(155,48,136,0.1)" stroke="rgba(155,48,136,0.2)" stroke-width="1"/>
        <text x="30" y="191" font-size="11" font-weight="600" fill="#9B3088" font-family="system-ui">● Bedrock Agent enabled</text>

        <!-- Time -->
        <text x="187" y="216" text-anchor="middle" font-size="10" fill="#8492A6" font-family="system-ui">Today, 10:02 AM</text>

        <!-- Incoming bubble (alert) -->
        <rect x="16" y="224" width="270" height="88" rx="18" fill="#E8E8ED"/>
        <text x="30" y="244" font-size="12" fill="#1A1F36" font-family="system-ui">[Signal Aggregator] Driver Maria S.</text>
        <text x="30" y="260" font-size="12" fill="#1A1F36" font-family="system-ui">score: 9</text>
        <text x="30" y="278" font-size="12" fill="#1A1F36" font-family="system-ui">Top signal: customer_complaint</text>
        <text x="30" y="294" font-size="12" fill="#8492A6" font-family="system-ui">Reply STOP to unsubscribe</text>

        <!-- Time -->
        <text x="187" y="326" text-anchor="middle" font-size="10" fill="#8492A6" font-family="system-ui">10:18 AM</text>

        <!-- Outgoing bubble (user reply) -->
        <rect x="120" y="334" width="239" height="36" rx="18" fill="#FF9900"/>
        <text x="239" y="357" text-anchor="middle" font-size="13" fill="#fff" font-family="system-ui">snooze 3 days spoke to her</text>

        <!-- Agent response bubble -->
        <rect x="16" y="382" width="320" height="78" rx="18" fill="#1B2E4B"/>
        <text x="30" y="402" font-size="12" fill="#fff" font-family="system-ui">Got it. Maria S. snoozed until Fri Apr 26.</text>
        <text x="30" y="420" font-size="12" fill="#fff" font-family="system-ui">I've logged the note.</text>
        <text x="30" y="442" font-size="12" fill="rgba(255,255,255,0.7)" font-family="system-ui">1 other driver needs attention — James T.</text>

        <!-- Outgoing "yes" -->
        <rect x="318" y="474" width="41" height="34" rx="17" fill="#FF9900"/>
        <text x="338" y="496" text-anchor="middle" font-size="13" fill="#fff" font-family="system-ui">yes</text>

        <!-- Agent summary bubble -->
        <rect x="16" y="520" width="320" height="88" rx="18" fill="#1B2E4B"/>
        <text x="30" y="540" font-size="12" fill="#fff" font-family="system-ui">James Torres · score 2 · watching</text>
        <text x="30" y="558" font-size="12" fill="rgba(255,255,255,0.8)" font-family="system-ui">Signal: hard_braking · low · 5h ago</text>
        <text x="30" y="576" font-size="12" fill="rgba(255,255,255,0.8)" font-family="system-ui">Recommended: Monitor — no action</text>
        <text x="30" y="594" font-size="12" fill="rgba(255,255,255,0.6)" font-family="system-ui">unless pattern in 7 days</text>

        <!-- SMS input bar -->
        <rect x="0" y="680" width="375" height="76" fill="#fff"/>
        <line x1="0" y1="680" x2="375" y2="680" stroke="#E2E8F0" stroke-width="1"/>
        <rect x="14" y="694" width="296" height="36" rx="18" fill="#F0F2F5"/>
        <text x="30" y="717" font-size="14" fill="#CBD5E0" font-family="system-ui">Message</text>
        <circle cx="340" cy="712" r="17" fill="#FF9900"/>
        <text x="340" y="719" text-anchor="middle" font-size="16" fill="#fff" font-family="system-ui">↑</text>

      </g>
    </g>
    <rect x="141" y="14" width="121" height="34" fill="#1C1C1E"/>
    <circle cx="201" cy="28" r="5" fill="#2C2C2E"/>
  </g>


  <!-- ═══════════════════════════════════════
       PHONE 5 — Playbook
  ═══════════════════════════════════════ -->
  <g transform="translate(1852,0)">
    <rect width="403" height="784" rx="48" fill="#1C1C1E"/>
    <rect x="14" y="14" width="375" height="756" rx="36" fill="#F0F2F5"/>

    <g clip-path="url(#sc)">
      <g transform="translate(14,14)">

        <!-- Status bar -->
        <rect width="375" height="44" fill="#1B2E4B"/>
        <text x="20" y="30" font-size="14" font-weight="600" fill="#fff" font-family="system-ui">9:41</text>
        <rect x="316" y="27" width="3" height="10" rx="1" fill="#fff"/>
        <rect x="321" y="25" width="3" height="12" rx="1" fill="#fff"/>
        <rect x="326" y="22" width="3" height="15" rx="1" fill="#fff"/>
        <rect x="331" y="19" width="3" height="18" rx="1" fill="#fff"/>
        <rect x="338" y="19" width="16" height="9" rx="2" stroke="#fff" stroke-width="1.5" fill="none"/>
        <rect x="354" y="22" width="2" height="3" rx="1" fill="#fff"/>
        <rect x="339" y="20" width="11" height="7" rx="1" fill="#fff"/>

        <!-- Header -->
        <rect x="0" y="44" width="375" height="56" fill="#1B2E4B"/>
        <text x="20" y="74" font-size="18" font-weight="700" fill="#fff" font-family="system-ui">Action Playbook</text>
        <text x="20" y="92" font-size="12" fill="rgba(255,255,255,0.55)" font-family="system-ui">Tap any row to edit</text>

        <!-- Playbook card -->
        <rect x="16" y="112" width="343" height="486" rx="14" fill="#fff" stroke="#E2E8F0" stroke-width="1"/>

        <!-- Row 1: Customer complaint / High -->
        <rect x="30" y="124" width="44" height="20" rx="10" fill="rgba(192,57,43,0.1)"/>
        <text x="52" y="138" text-anchor="middle" font-size="10" font-weight="700" fill="#C0392B" font-family="system-ui">HIGH</text>
        <text x="84" y="134" font-size="12" font-weight="600" fill="#1A1F36" font-family="system-ui">Customer complaint</text>
        <text x="84" y="150" font-size="11" fill="#8492A6" font-family="system-ui">Call driver same day + document in Mentor</text>
        <text x="346" y="138" font-size="12" fill="#CBD5E0" font-family="system-ui">✏</text>
        <line x1="30" y1="166" x2="345" y2="166" stroke="#E2E8F0" stroke-width="1"/>

        <!-- Row 2: Customer complaint / Medium -->
        <rect x="30" y="178" width="58" height="20" rx="10" fill="rgba(230,126,34,0.1)"/>
        <text x="59" y="192" text-anchor="middle" font-size="10" font-weight="700" fill="#E67E22" font-family="system-ui">MEDIUM</text>
        <text x="98" y="188" font-size="12" font-weight="600" fill="#1A1F36" font-family="system-ui">Customer complaint</text>
        <text x="98" y="204" font-size="11" fill="#8492A6" font-family="system-ui">Address at next weekly check-in</text>
        <text x="346" y="192" font-size="12" fill="#CBD5E0" font-family="system-ui">✏</text>
        <line x1="30" y1="220" x2="345" y2="220" stroke="#E2E8F0" stroke-width="1"/>

        <!-- Row 3: Customer complaint / Low -->
        <rect x="30" y="232" width="36" height="20" rx="10" fill="rgba(39,174,96,0.1)"/>
        <text x="48" y="246" text-anchor="middle" font-size="10" font-weight="700" fill="#27AE60" font-family="system-ui">LOW</text>
        <text x="76" y="242" font-size="12" font-weight="600" fill="#1A1F36" font-family="system-ui">Customer complaint</text>
        <text x="76" y="258" font-size="11" fill="#8492A6" font-family="system-ui">Monitor — flag if pattern continues</text>
        <text x="346" y="246" font-size="12" fill="#CBD5E0" font-family="system-ui">✏</text>
        <line x1="30" y1="274" x2="345" y2="274" stroke="#E2E8F0" stroke-width="1"/>

        <!-- Row 4: On-road / High -->
        <rect x="30" y="286" width="44" height="20" rx="10" fill="rgba(192,57,43,0.1)"/>
        <text x="52" y="300" text-anchor="middle" font-size="10" font-weight="700" fill="#C0392B" font-family="system-ui">HIGH</text>
        <text x="84" y="296" font-size="12" font-weight="600" fill="#1A1F36" font-family="system-ui">On-road observation</text>
        <text x="84" y="312" font-size="11" fill="#8492A6" font-family="system-ui">Review incident + schedule coaching</text>
        <text x="346" y="300" font-size="12" fill="#CBD5E0" font-family="system-ui">✏</text>
        <line x1="30" y1="328" x2="345" y2="328" stroke="#E2E8F0" stroke-width="1"/>

        <!-- Row 5: On-road / Medium -->
        <rect x="30" y="340" width="58" height="20" rx="10" fill="rgba(230,126,34,0.1)"/>
        <text x="59" y="354" text-anchor="middle" font-size="10" font-weight="700" fill="#E67E22" font-family="system-ui">MEDIUM</text>
        <text x="98" y="350" font-size="12" font-weight="600" fill="#1A1F36" font-family="system-ui">On-road observation</text>
        <text x="98" y="366" font-size="11" fill="#8492A6" font-family="system-ui">Discuss at next check-in</text>
        <text x="346" y="354" font-size="12" fill="#CBD5E0" font-family="system-ui">✏</text>
        <line x1="30" y1="382" x2="345" y2="382" stroke="#E2E8F0" stroke-width="1"/>

        <!-- Row 6: On-road / Low -->
        <rect x="30" y="394" width="36" height="20" rx="10" fill="rgba(39,174,96,0.1)"/>
        <text x="48" y="408" text-anchor="middle" font-size="10" font-weight="700" fill="#27AE60" font-family="system-ui">LOW</text>
        <text x="76" y="404" font-size="12" font-weight="600" fill="#1A1F36" font-family="system-ui">On-road observation</text>
        <text x="76" y="420" font-size="11" fill="#8492A6" font-family="system-ui">Log for awareness — no action required</text>
        <text x="346" y="408" font-size="12" fill="#CBD5E0" font-family="system-ui">✏</text>
        <line x1="30" y1="436" x2="345" y2="436" stroke="#E2E8F0" stroke-width="1"/>

        <!-- Row 7: Hard braking / High -->
        <rect x="30" y="448" width="44" height="20" rx="10" fill="rgba(192,57,43,0.1)"/>
        <text x="52" y="462" text-anchor="middle" font-size="10" font-weight="700" fill="#C0392B" font-family="system-ui">HIGH</text>
        <text x="84" y="458" font-size="12" font-weight="600" fill="#1A1F36" font-family="system-ui">Hard braking</text>
        <text x="84" y="474" font-size="11" fill="#8492A6" font-family="system-ui">Review dashcam + schedule defensive driving</text>
        <text x="346" y="462" font-size="12" fill="#CBD5E0" font-family="system-ui">✏</text>
        <line x1="30" y1="490" x2="345" y2="490" stroke="#E2E8F0" stroke-width="1"/>

        <!-- Row 8: Hard braking / Medium -->
        <rect x="30" y="502" width="58" height="20" rx="10" fill="rgba(230,126,34,0.1)"/>
        <text x="59" y="516" text-anchor="middle" font-size="10" font-weight="700" fill="#E67E22" font-family="system-ui">MEDIUM</text>
        <text x="98" y="512" font-size="12" font-weight="600" fill="#1A1F36" font-family="system-ui">Hard braking</text>
        <text x="98" y="528" font-size="11" fill="#8492A6" font-family="system-ui">Monitor — no action unless pattern in 7 days</text>
        <text x="346" y="516" font-size="12" fill="#CBD5E0" font-family="system-ui">✏</text>
        <line x1="30" y1="544" x2="345" y2="544" stroke="#E2E8F0" stroke-width="1"/>

        <!-- Row 9: Hard braking / Low -->
        <rect x="30" y="556" width="36" height="20" rx="10" fill="rgba(39,174,96,0.1)"/>
        <text x="48" y="570" text-anchor="middle" font-size="10" font-weight="700" fill="#27AE60" font-family="system-ui">LOW</text>
        <text x="76" y="566" font-size="12" font-weight="600" fill="#1A1F36" font-family="system-ui">Hard braking</text>
        <text x="76" y="582" font-size="11" fill="#8492A6" font-family="system-ui">No action</text>
        <text x="346" y="570" font-size="12" fill="#CBD5E0" font-family="system-ui">✏</text>

        <!-- Tab bar -->
        <rect x="0" y="684" width="375" height="72" fill="#fff"/>
        <line x1="0" y1="684" x2="375" y2="684" stroke="#E2E8F0" stroke-width="1"/>
        <g transform="translate(51.5,698) scale(0.917)">
          <polyline points="9,11 12,14 22,4" stroke="#94A3B8" stroke-width="2" fill="none" stroke-linecap="round" stroke-linejoin="round"/>
          <path d="M21,12v7a2,2,0,0,1-2,2H5a2,2,0,0,1-2-2V5a2,2,0,0,1,2-2h11" stroke="#94A3B8" stroke-width="2" fill="none" stroke-linecap="round"/>
        </g>
        <text x="62.5" y="730" text-anchor="middle" font-size="10" font-weight="500" fill="#94A3B8" font-family="system-ui">Queue</text>
        <g transform="translate(176.5,698) scale(0.917)">
          <path d="M4,19.5A2.5,2.5,0,0,1,6.5,17H20" stroke="#FF9900" stroke-width="2" fill="none" stroke-linecap="round"/>
          <path d="M6.5,2H20v20H6.5A2.5,2.5,0,0,1,4,19.5v-15A2.5,2.5,0,0,1,6.5,2z" stroke="#FF9900" stroke-width="2" fill="none" stroke-linecap="round"/>
        </g>
        <text x="187.5" y="730" text-anchor="middle" font-size="10" font-weight="500" fill="#FF9900" font-family="system-ui">Playbook</text>
        <g transform="translate(301.5,698) scale(0.917)">
          <circle cx="12" cy="12" r="10" stroke="#94A3B8" stroke-width="2" fill="none"/>
          <path d="M8,14s1.5,2,4,2,4-2,4-2" stroke="#94A3B8" stroke-width="2" fill="none" stroke-linecap="round"/>
          <line x1="9" y1="9" x2="9.01" y2="9" stroke="#94A3B8" stroke-width="2.5" stroke-linecap="round"/>
          <line x1="15" y1="9" x2="15.01" y2="9" stroke="#94A3B8" stroke-width="2.5" stroke-linecap="round"/>
        </g>
        <text x="312.5" y="730" text-anchor="middle" font-size="10" font-weight="500" fill="#94A3B8" font-family="system-ui">Agent</text>

      </g>
    </g>
    <rect x="141" y="14" width="121" height="34" fill="#1C1C1E"/>
    <circle cx="201" cy="28" r="5" fill="#2C2C2E"/>
  </g>

</svg>
